# xmcd
#
# Track frame offsets:
#	183
#	11960
#	21920
#	33490
#	44240
#	56673
#	66900
#	77770
#	90268
#	104858
#	122038
#	134495
#	144308
#	154970
#	166425
#	178710
#	189450
#	200238
#	213173
#	224075
#	235258
#	244785
#	256705
#	267085
#	278560
#
# Disc length: 3828 seconds
#
# Revision: 6
# Processed by: cddbd v1.5.1PL0 Copyright (c) Steve Scherf et al.
# Submitted via: dBpowerAMP V4.0
#
DISCID=7f0ef219
DTITLE=Various Artist - Country Giants Volume 2
DYEAR=1900
DGENRE=Country
TTITLE0=Is There Something on Your Mind - Willie Nelson
TTITLE1=Rhythm 'n' Booze - Buck Owens
TTITLE2=Candy Store - Johnny Lee
TTITLE3=Stop, Look and Listen - Patsy Cline
TTITLE4=Four in The Morning - Faron Young
TTITLE5=Hello Walls - Faron Young
TTITLE6=Wishful Thinking - Donna Fargo
TTITLE7=Rueben James - Kenny Rogers
TTITLE8=Both Sides Now - Anne Murray
TTITLE9=Billy Jack Washburn - Johnny Paycheck
TTITLE10=The Shelter of my Arms - Willie Nelson
TTITLE11=This Old House - Carl Perkins
TTITLE12=Cry Not For Me - Patsy Cline
TTITLE13=Letter to Heaven - Dolly Parton
TTITLE14=Ol' Blue - Stonewall Jackson
TTITLE15=Sally Was a Good Old Girl - Waylon Jennings
TTITLE16=Honky Tonk Merry go Round - Patsy Cline
TTITLE17=Moonlight Gambler - Frankie Lane
TTITLE18=Wine me Up - Faron Young
TTITLE19=Send me The Pillow You Dream On - Hank Locklin
TTITLE20=Building Heartaches - Willie Nelson
TTITLE21=Ease The Want in Me - Billie jo Spears
TTITLE22=Sad And Lonely Days - Dave Dudley
TTITLE23=Heartaches by The Number - Guy Mitchell
TTITLE24=Blue is The Way I Feel - Conway Twitty
EXTD=Les chanteurs comme artiste, les titres comme nom de pistes, c'est plus logique
EXTT0=
EXTT1=
EXTT2=
EXTT3=
EXTT4=
EXTT5=
EXTT6=
EXTT7=
EXTT8=
EXTT9=
EXTT10=
EXTT11=
EXTT12=
EXTT13=
EXTT14=
EXTT15=
EXTT16=
EXTT17=
EXTT18=
EXTT19=
EXTT20=
EXTT21=
EXTT22=
EXTT23=
EXTT24=
PLAYORDER=
